<svg width="96" height="28" viewBox="0 0 96 28" fill="none" xmlns="http://www.w3.org/2000/svg">
<path d="M6.11445 28H3.72212C2.53574 28 1.61824 27.6786 0.971271 27.0339C0.322671 26.3859 0 25.4548 0 24.2421V16.9395C0 15.7236 0.322671 14.7924 0.971271 14.1478C1.61824 13.5048 2.53574 13.1816 3.72212 13.1816H6.11445C7.28291 13.1816 8.19062 13.5081 8.83922 14.1611C9.48619 14.8141 9.81049 15.7402 9.81049 16.9395V17.6258C9.81049 17.969 9.65079 18.1389 9.33463 18.1389H7.41817C7.10527 18.1389 6.94883 17.969 6.94883 17.6258V17.0728C6.94883 16.5847 6.85105 16.2366 6.65549 16.0267C6.45993 15.8185 6.12097 15.7136 5.63859 15.7136H4.1719C3.70582 15.7136 3.37175 15.8185 3.16804 16.0267C2.96759 16.2366 2.86818 16.5847 2.86818 17.0728V24.1022C2.86818 24.5953 2.96759 24.9467 3.16804 25.155C3.37175 25.3648 3.70582 25.4681 4.1719 25.4681H5.63859C6.12097 25.4681 6.45993 25.3648 6.65549 25.155C6.85105 24.9467 6.94883 24.5953 6.94883 24.1022V22.6564C6.94883 22.4831 6.86572 22.3965 6.70112 22.3965H5.34525C5.02747 22.3965 4.86939 22.2366 4.86939 21.9168V20.351C4.86939 20.0278 5.02747 19.8646 5.34525 19.8646H9.289C9.63612 19.8646 9.81049 20.0428 9.81049 20.3976V24.2421C9.81049 25.4415 9.48619 26.3676 8.83922 27.0206C8.19062 27.6736 7.28291 28 6.11445 28Z" fill="white"/>
<path d="M20.7668 28H15.7801C14.5937 28 13.6762 27.6785 13.0292 27.0339C12.3855 26.3859 12.0645 25.4548 12.0645 24.2421V20.0045C12.0645 18.7885 12.3855 17.8573 13.0292 17.2127C13.6762 16.5697 14.5937 16.2466 15.7801 16.2466H17.5662C18.7525 16.2466 19.6668 16.5697 20.3105 17.2127C20.9575 17.8573 21.2818 18.7885 21.2818 20.0045V22.9295C21.2818 23.2543 21.1253 23.4159 20.8124 23.4159H15.1543C14.9717 23.4159 14.8805 23.5009 14.8805 23.6691V24.1755C14.8805 24.6519 14.9799 24.9934 15.1803 25.2016C15.384 25.4065 15.7279 25.5081 16.2103 25.5081H20.7668C21.0797 25.5081 21.2361 25.6797 21.2361 26.0211V27.5403C21.2361 27.7102 21.2003 27.8301 21.1318 27.9001C21.0666 27.9667 20.9444 28 20.7668 28ZM15.1543 21.457H18.218C18.3826 21.457 18.4657 21.3737 18.4657 21.2038V20.0978C18.4657 19.6047 18.3679 19.2582 18.1724 19.0583C17.9768 18.8585 17.6379 18.7585 17.1555 18.7585H16.2103C15.7279 18.7585 15.3889 18.8585 15.1934 19.0583C14.9978 19.2582 14.9 19.6047 14.9 20.0978V21.2038C14.9 21.3737 14.9848 21.457 15.1543 21.457Z" fill="white"/>
<path d="M27.4573 28H26.9163C25.7299 28 24.8124 27.6785 24.1654 27.0339C23.5217 26.3859 23.2007 25.4548 23.2007 24.2421V20.0045C23.2007 18.7885 23.5217 17.8573 24.1654 17.2127C24.8124 16.5697 25.7299 16.2466 26.9163 16.2466H32.1246C32.4587 16.2466 32.6266 16.4098 32.6266 16.733V27.5136C32.6266 27.8384 32.4587 28 32.1246 28H30.2343C29.9165 28 29.7584 27.8384 29.7584 27.5136V26.7541H29.6671C29.5009 27.1722 29.2076 27.4853 28.7871 27.6935C28.3699 27.8984 27.9267 28 27.4573 28ZM29.7584 23.7157V19.0317C29.7584 18.8635 29.6688 18.7785 29.4911 18.7785H27.3726C26.8902 18.7785 26.5512 18.8834 26.3557 19.0917C26.1601 19.3015 26.0623 19.6497 26.0623 20.1377V24.1022C26.0623 24.5953 26.1601 24.9467 26.3557 25.1549C26.5512 25.3648 26.8902 25.4681 27.3726 25.4681H28.207C29.2402 25.4681 29.7584 24.8851 29.7584 23.7157Z" fill="white"/>
<path d="M37.4914 28H35.575C35.2572 28 35.0991 27.8384 35.0991 27.5136V16.733C35.0991 16.4098 35.2572 16.2466 35.575 16.2466H37.4914C37.8076 16.2466 37.9673 16.4098 37.9673 16.733V17.5125H38.052C38.2166 17.0994 38.51 16.7863 38.9321 16.5731C39.3525 16.3565 39.7958 16.2466 40.2619 16.2466H41.0767C41.3765 16.2466 41.5265 16.4098 41.5265 16.733V18.3188C41.5265 18.5053 41.4906 18.6352 41.4222 18.7052C41.357 18.7718 41.2413 18.7968 41.0767 18.7785H39.5187C38.4839 18.7785 37.9673 19.3782 37.9673 20.5775V27.5136C37.9673 27.8384 37.8076 28 37.4914 28Z" fill="white"/>
<path d="M45.3591 27.9999H43.4427C43.1249 27.9999 42.9668 27.8384 42.9668 27.5136V12.282C42.9668 11.9589 43.1249 11.7957 43.4427 11.7957H45.3591C45.6753 11.7957 45.835 11.9589 45.835 12.282V17.4925H45.9197C46.2489 16.6629 46.9855 16.2465 48.1295 16.2465H48.8531C51.2128 16.2465 52.3927 17.4991 52.3927 20.0044V27.5136C52.3927 27.8384 52.2265 27.9999 51.8973 27.9999H50.0004C49.6875 27.9999 49.531 27.8384 49.531 27.5136V20.1377C49.531 19.6496 49.4284 19.3015 49.2247 19.0916C49.0193 18.8834 48.6787 18.7784 48.2012 18.7784H47.3864C46.3516 18.7784 45.835 19.3631 45.835 20.5308V27.5136C45.835 27.8384 45.6753 27.9999 45.3591 27.9999Z" fill="white"/>
<path d="M59.3587 28H56.7904C56.5036 28 56.3227 27.8384 56.2493 27.5136L53.9939 16.733C53.932 16.4098 54.046 16.2466 54.3329 16.2466H56.497C56.8262 16.2466 57.0071 16.4098 57.0381 16.733L58.0485 24.6152H58.231L59.8346 16.733C59.8769 16.4098 60.0497 16.2466 60.3495 16.2466H62.3312C62.6473 16.2466 62.8364 16.4098 62.8983 16.733L64.4562 24.6152H64.6323L65.6687 16.733C65.716 16.4098 65.8969 16.2466 66.2098 16.2466H68.3739C68.677 16.2466 68.7911 16.4098 68.7129 16.733L66.4575 27.5136C66.4004 27.8384 66.2195 28 65.9164 28H63.3481C63.0482 28 62.8673 27.8384 62.807 27.5136L61.4316 19.7246H61.2491L59.8997 27.5136C59.8557 27.8384 59.6749 28 59.3587 28Z" fill="white"/>
<path d="M74.4817 28H73.9407C72.7543 28 71.8368 27.6785 71.1899 27.0339C70.5461 26.3859 70.2251 25.4548 70.2251 24.2421V20.0045C70.2251 18.7885 70.5461 17.8573 71.1899 17.2127C71.8368 16.5697 72.7543 16.2466 73.9407 16.2466H79.1491C79.4831 16.2466 79.651 16.4098 79.651 16.733V27.5136C79.651 27.8384 79.4831 28 79.1491 28H77.2587C76.9409 28 76.7828 27.8384 76.7828 27.5136V26.7541H76.6915C76.5253 27.1722 76.232 27.4853 75.8115 27.6935C75.3943 27.8984 74.9511 28 74.4817 28ZM76.7828 23.7157V19.0317C76.7828 18.8635 76.6932 18.7785 76.5155 18.7785H74.397C73.9146 18.7785 73.5757 18.8834 73.3801 19.0917C73.1845 19.3015 73.0868 19.6497 73.0868 20.1377V24.1022C73.0868 24.5953 73.1845 24.9467 73.3801 25.1549C73.5757 25.3648 73.9146 25.4681 74.397 25.4681H75.2314C76.2646 25.4681 76.7828 24.8851 76.7828 23.7157Z" fill="white"/>
<path d="M84.5163 28H82.5999C82.2821 28 82.124 27.8384 82.124 27.5136V16.733C82.124 16.4098 82.2821 16.2466 82.5999 16.2466H84.5163C84.8325 16.2466 84.9922 16.4098 84.9922 16.733V17.4926H85.0769C85.4061 16.663 86.1427 16.2466 87.2868 16.2466H88.0103C90.3701 16.2466 91.5499 17.4992 91.5499 20.0045V27.5136C91.5499 27.8384 91.3837 28 91.0545 28H89.1576C88.8447 28 88.6883 27.8384 88.6883 27.5136V20.1377C88.6883 19.6497 88.5856 19.3015 88.3819 19.0917C88.1765 18.8834 87.8359 18.7785 87.3585 18.7785H86.5436C85.5088 18.7785 84.9922 19.3632 84.9922 20.5309V27.5136C84.9922 27.8384 84.8325 28 84.5163 28Z" fill="white"/>
<mask id="mask0_49_244" style="mask-type:luminance" maskUnits="userSpaceOnUse" x="0" y="5" width="96" height="11">
<path d="M0.457031 5.26575H96.0001V15.5H0.457031V5.26575Z" fill="white"/>
</mask>
<g mask="url(#mask0_49_244)">
<path fill-rule="evenodd" clip-rule="evenodd" d="M96.0685 15.2902C92.6935 12.2036 88.7416 9.05367 80.0995 8.11419C75.2611 7.58615 67.4372 8.65222 62.5727 8.53895C55.3696 8.36905 48.2317 7.02813 41.0385 6.62502C31.166 6.07033 21.279 5.75217 11.3919 5.66722C5.58544 5.61892 7.53287 7.29964 0.989823 5.45567C0.533521 5.25412 0.528632 6.56505 0.885525 6.80992C5.14706 8.42235 7.66976 6.91153 12.016 6.91652C21.6261 6.92985 31.2312 7.46289 40.8299 7.92763C48.0248 8.27577 55.1887 9.33184 62.3918 9.36349C67.3231 9.38348 75.2024 8.14417 80.1012 8.72552C87.3515 9.58504 92.4995 12.5717 96.0685 15.2902Z" fill="white"/>
</g>
<path fill-rule="evenodd" clip-rule="evenodd" d="M71.2992 7.44449C64.849 4.20296 59.463 0.594977 50.702 0.0669385C41.9427 -0.459434 25.7782 2.20574 13.8247 4.99919C21.9029 4.86759 29.9827 5.23739 38.0625 5.95532C36.0906 5.14577 34.197 4.67936 32.6015 3.82817C35.341 2.76543 45.0553 0.336788 50.9106 0.958108C57.9426 1.70436 64.8246 4.68936 71.2992 7.44449Z" fill="white"/>
<mask id="mask1_49_244" style="mask-type:luminance" maskUnits="userSpaceOnUse" x="0" y="7" width="2" height="4">
<path d="M0.254883 7.82422H1.70853V10.8092H0.254883V7.82422Z" fill="white"/>
</mask>
<g mask="url(#mask1_49_244)">
<path fill-rule="evenodd" clip-rule="evenodd" d="M0.347966 10.4511C0.577747 10.4511 0.807528 10.4511 1.03731 10.4511C0.851528 9.42503 0.93627 8.51054 1.68754 7.87256C0.37893 7.91254 0.248558 9.0469 0.347966 10.4511Z" fill="#EF0000"/>
</g>
<path fill-rule="evenodd" clip-rule="evenodd" d="M67.802 8.00585C66.4804 8.00585 65.1587 8.00585 63.8354 8.00585C63.8354 7.74933 63.8811 6.15689 64.4873 6.12024C65.8562 6.03529 67.7499 7.40286 67.802 8.00585Z" fill="white"/>
<mask id="mask2_49_244" style="mask-type:luminance" maskUnits="userSpaceOnUse" x="89" y="12" width="7" height="4">
<path d="M89.7358 12.515H95.1593V15.8282H89.7358V12.515Z" fill="white"/>
</mask>
<g mask="url(#mask2_49_244)">
<path fill-rule="evenodd" clip-rule="evenodd" d="M94.8626 15.6632C93.9646 15.6632 93.8831 15.6632 92.9852 15.6632C92.3203 15.6632 90.6972 13.7743 90.1187 12.8564C91.7597 13.5227 93.5914 14.4289 94.8626 15.6632Z" fill="#EF0000"/>
</g>
</svg>
