<svg width="3769" height="1076" viewBox="0 0 3769 1076" fill="none" xmlns="http://www.w3.org/2000/svg">
<path d="M240.056 1076H146.132C99.554 1076 63.5329 1063.64 38.1325 1038.87C12.6682 1013.97 0 978.189 0 931.588V650.96C0 604.231 12.6682 568.449 38.1325 543.676C63.5329 518.968 99.554 506.549 146.132 506.549H240.056C285.93 506.549 321.567 519.096 347.031 544.188C372.432 569.281 385.164 604.872 385.164 650.96V677.333C385.164 690.519 378.894 697.049 366.482 697.049H291.24C278.956 697.049 272.814 690.519 272.814 677.333V656.081C272.814 637.326 268.975 623.947 261.297 615.882C253.62 607.88 240.312 603.847 221.373 603.847H163.791C145.492 603.847 132.376 607.88 124.379 615.882C116.509 623.947 112.606 637.326 112.606 656.081V926.211C112.606 945.159 116.509 958.665 124.379 966.667C132.376 974.732 145.492 978.701 163.791 978.701H221.373C240.312 978.701 253.62 974.732 261.297 966.667C268.975 958.665 272.814 945.159 272.814 926.211V870.649C272.814 863.992 269.551 860.663 263.089 860.663H209.857C197.381 860.663 191.174 854.518 191.174 842.228V782.057C191.174 769.638 197.381 763.365 209.857 763.365H364.69C378.318 763.365 385.164 770.214 385.164 783.849V931.588C385.164 977.677 372.432 1013.27 347.031 1038.36C321.567 1063.45 285.93 1076 240.056 1076Z" fill="#0A2540"/>
<path d="M815.306 1076H619.525C572.947 1076 536.925 1063.65 511.525 1038.87C486.253 1013.97 473.648 978.19 473.648 931.589V768.743C473.648 722.014 486.253 686.231 511.525 661.459C536.925 636.75 572.947 624.332 619.525 624.332H689.647C736.225 624.332 772.119 636.75 797.391 661.459C822.791 686.231 835.523 722.014 835.523 768.743V881.147C835.523 893.63 829.381 899.839 817.097 899.839H594.956C587.79 899.839 584.207 903.104 584.207 909.569V929.028C584.207 947.336 588.11 960.458 595.98 968.46C603.977 976.333 617.477 980.238 636.415 980.238H815.306C827.59 980.238 833.732 986.831 833.732 999.954V1058.33C833.732 1064.86 832.324 1069.47 829.637 1072.16C827.078 1074.72 822.279 1076 815.306 1076ZM594.956 824.561H715.24C721.702 824.561 724.965 821.36 724.965 814.831V772.327C724.965 753.38 721.126 740.065 713.448 732.384C705.771 724.702 692.463 720.862 673.524 720.862H636.415C617.477 720.862 604.169 724.702 596.491 732.384C588.814 740.065 584.975 753.38 584.975 772.327V814.831C584.975 821.36 588.302 824.561 594.956 824.561Z" fill="#0A2540"/>
<path d="M1077.98 1076H1056.74C1010.16 1076 974.136 1063.65 948.736 1038.87C923.464 1013.97 910.859 978.19 910.859 931.589V768.743C910.859 722.014 923.464 686.231 948.736 661.459C974.136 636.75 1010.16 624.332 1056.74 624.332H1261.22C1274.33 624.332 1280.92 630.605 1280.92 643.023V1057.31C1280.92 1069.79 1274.33 1076 1261.22 1076H1187C1174.52 1076 1168.32 1069.79 1168.32 1057.31V1028.12H1164.73C1158.21 1044.19 1146.69 1056.22 1130.19 1064.22C1113.81 1072.1 1096.4 1076 1077.98 1076ZM1168.32 911.361V731.36C1168.32 724.894 1164.8 721.63 1157.82 721.63H1074.65C1055.71 721.63 1042.4 725.663 1034.73 733.664C1027.05 741.73 1023.21 755.108 1023.21 773.864V926.212C1023.21 945.159 1027.05 958.666 1034.73 966.667C1042.4 974.733 1055.71 978.702 1074.65 978.702H1107.41C1147.97 978.702 1168.32 956.297 1168.32 911.361Z" fill="#0A2540"/>
<path d="M1471.94 1076H1396.7C1384.22 1076 1378.01 1069.79 1378.01 1057.31V643.023C1378.01 630.605 1384.22 624.332 1396.7 624.332H1471.94C1484.35 624.332 1490.62 630.605 1490.62 643.023V672.981H1493.95C1500.41 657.106 1511.93 645.072 1528.5 636.878C1545 628.557 1562.41 624.332 1580.7 624.332H1612.69C1624.47 624.332 1630.35 630.605 1630.35 643.023V703.963C1630.35 711.132 1628.95 716.125 1626.26 718.813C1623.7 721.374 1619.16 722.334 1612.69 721.63H1551.53C1510.9 721.63 1490.62 744.674 1490.62 790.763V1057.31C1490.62 1069.79 1484.35 1076 1471.94 1076Z" fill="#0A2540"/>
<path d="M1780.82 1076H1705.58C1693.1 1076 1686.89 1069.79 1686.89 1057.31V471.982C1686.89 459.564 1693.1 453.291 1705.58 453.291H1780.82C1793.23 453.291 1799.5 459.564 1799.5 471.982V672.212H1802.83C1815.75 640.334 1844.67 624.331 1889.59 624.331H1917.99C2010.64 624.331 2056.96 672.468 2056.96 768.742V1057.31C2056.96 1069.79 2050.43 1076 2037.51 1076H1963.04C1950.75 1076 1944.61 1069.79 1944.61 1057.31V773.863C1944.61 755.107 1940.58 741.729 1932.58 733.663C1924.52 725.662 1911.15 721.629 1892.4 721.629H1860.41C1819.78 721.629 1799.5 744.097 1799.5 788.969V1057.31C1799.5 1069.79 1793.23 1076 1780.82 1076Z" fill="#0A2540"/>
<path d="M2330.45 1076H2229.62C2218.36 1076 2211.26 1069.79 2208.38 1057.31L2119.83 643.023C2117.4 630.605 2121.88 624.332 2133.14 624.332H2218.1C2231.03 624.332 2238.13 630.605 2239.35 643.023L2279.01 945.928H2286.18L2349.14 643.023C2350.8 630.605 2357.58 624.332 2369.35 624.332H2447.16C2459.57 624.332 2466.99 630.605 2469.42 643.023L2530.59 945.928H2537.5L2578.19 643.023C2580.04 630.605 2587.14 624.332 2599.43 624.332H2684.4C2696.3 624.332 2700.77 630.605 2697.7 643.023L2609.15 1057.31C2606.91 1069.79 2599.81 1076 2587.91 1076H2487.08C2475.31 1076 2468.2 1069.79 2465.84 1057.31L2411.84 757.989H2404.67L2351.7 1057.31C2349.97 1069.79 2342.87 1076 2330.45 1076Z" fill="#0A2540"/>
<path d="M2924.18 1076H2902.94C2856.36 1076 2820.34 1063.65 2794.94 1038.87C2769.67 1013.97 2757.06 978.19 2757.06 931.589V768.743C2757.06 722.014 2769.67 686.231 2794.94 661.459C2820.34 636.75 2856.36 624.332 2902.94 624.332H3107.42C3120.54 624.332 3127.13 630.605 3127.13 643.023V1057.31C3127.13 1069.79 3120.54 1076 3107.42 1076H3033.2C3020.73 1076 3014.52 1069.79 3014.52 1057.31V1028.12H3010.94C3004.41 1044.19 2992.9 1056.22 2976.39 1064.22C2960.01 1072.1 2942.61 1076 2924.18 1076ZM3014.52 911.361V731.36C3014.52 724.894 3011 721.63 3004.03 721.63H2920.85C2901.91 721.63 2888.61 725.663 2880.93 733.664C2873.25 741.73 2869.41 755.108 2869.41 773.864V926.212C2869.41 945.159 2873.25 958.666 2880.93 966.667C2888.61 974.733 2901.91 978.702 2920.85 978.702H2953.61C2994.18 978.702 3014.52 956.297 3014.52 911.361Z" fill="#0A2540"/>
<path d="M3318.14 1076H3242.9C3230.42 1076 3224.22 1069.79 3224.22 1057.31V643.023C3224.22 630.605 3230.42 624.332 3242.9 624.332H3318.14C3330.55 624.332 3336.82 630.605 3336.82 643.023V672.213H3340.15C3353.07 640.335 3381.99 624.332 3426.91 624.332H3455.32C3547.96 624.332 3594.28 672.469 3594.28 768.743V1057.31C3594.28 1069.79 3587.76 1076 3574.83 1076H3500.36C3488.07 1076 3481.93 1069.79 3481.93 1057.31V773.864C3481.93 755.108 3477.9 741.73 3469.9 733.664C3461.84 725.663 3448.47 721.63 3429.72 721.63H3397.73C3357.1 721.63 3336.82 744.098 3336.82 788.97V1057.31C3336.82 1069.79 3330.55 1076 3318.14 1076Z" fill="#0A2540"/>
<mask id="mask0_87_994" style="mask-type:luminance" maskUnits="userSpaceOnUse" x="17" y="202" width="3752" height="394">
<path d="M17.9375 202.353H3769V595.642H17.9375V202.353Z" fill="white"/>
</mask>
<g mask="url(#mask0_87_994)">
<path fill-rule="evenodd" clip-rule="evenodd" d="M3771.69 587.576C3639.18 468.962 3484.03 347.916 3144.74 311.813C2954.78 291.521 2647.61 332.489 2456.63 328.136C2173.83 321.607 1893.6 270.077 1611.19 254.586C1223.59 233.27 835.419 221.044 447.248 217.78C219.285 215.923 295.742 280.511 38.859 209.65C20.9444 201.905 20.7525 252.282 34.7643 261.692C202.074 323.655 301.116 265.596 471.753 265.788C849.047 266.301 1226.15 286.784 1603 304.644C1885.47 318.022 2166.73 358.606 2449.52 359.822C2643.13 360.59 2952.48 312.965 3144.8 335.305C3429.45 368.335 3631.57 483.109 3771.69 587.576Z" fill="#0A2540"/>
</g>
<path fill-rule="evenodd" clip-rule="evenodd" d="M2799.24 286.081C2546.01 161.514 2334.55 22.8639 1990.59 2.57211C1646.69 -17.6557 1012.07 84.7634 542.771 192.111C859.924 187.054 1177.14 201.265 1494.36 228.854C1416.94 197.744 1342.59 179.821 1279.96 147.111C1387.51 106.271 1768.9 12.942 1998.78 36.8185C2274.86 65.4958 2545.05 180.205 2799.24 286.081Z" fill="#0A2540"/>
<mask id="mask1_87_994" style="mask-type:luminance" maskUnits="userSpaceOnUse" x="10" y="300" width="58" height="116">
<path d="M10.0039 300.675H67.0747V415.385H10.0039V300.675Z" fill="white"/>
</mask>
<g mask="url(#mask1_87_994)">
<path fill-rule="evenodd" clip-rule="evenodd" d="M13.6512 401.622C22.6725 401.622 31.6938 401.622 40.7151 401.622C33.4213 362.191 36.7483 327.049 66.2434 302.532C14.8669 304.068 9.74842 347.66 13.6512 401.622Z" fill="#EF0000"/>
</g>
<path fill-rule="evenodd" clip-rule="evenodd" d="M2661.94 307.652C2610.05 307.652 2558.16 307.652 2506.21 307.652C2506.21 297.794 2508 236.599 2531.8 235.191C2585.55 231.926 2659.89 284.48 2661.94 307.652Z" fill="#0A2540"/>
<mask id="mask2_87_994" style="mask-type:luminance" maskUnits="userSpaceOnUse" x="3523" y="480" width="213" height="129">
<path d="M3523.06 480.934H3735.99V608.253H3523.06V480.934Z" fill="white"/>
</mask>
<g mask="url(#mask2_87_994)">
<path fill-rule="evenodd" clip-rule="evenodd" d="M3724.34 601.916C3689.09 601.916 3685.89 601.916 3650.64 601.916C3624.53 601.916 3560.81 529.326 3538.09 494.056C3602.52 519.66 3674.44 554.483 3724.34 601.916Z" fill="#EF0000"/>
</g>
</svg>
